<svg width="30" height="30" viewBox="0 0 30 30" fill="none" xmlns="http://www.w3.org/2000/svg">
<path d="M25 2.5H5C3.625 2.5 2.5125 3.625 2.5125 5L2.5 27.5L7.5 22.5H25C26.375 22.5 27.5 21.375 27.5 20V5C27.5 3.625 26.375 2.5 25 2.5ZM8.75 11.25H21.25C21.9375 11.25 22.5 11.8125 22.5 12.5C22.5 13.1875 21.9375 13.75 21.25 13.75H8.75C8.0625 13.75 7.5 13.1875 7.5 12.5C7.5 11.8125 8.0625 11.25 8.75 11.25ZM16.25 17.5H8.75C8.0625 17.5 7.5 16.9375 7.5 16.25C7.5 15.5625 8.0625 15 8.75 15H16.25C16.9375 15 17.5 15.5625 17.5 16.25C17.5 16.9375 16.9375 17.5 16.25 17.5ZM21.25 10H8.75C8.0625 10 7.5 9.4375 7.5 8.75C7.5 8.0625 8.0625 7.5 8.75 7.5H21.25C21.9375 7.5 22.5 8.0625 22.5 8.75C22.5 9.4375 21.9375 10 21.25 10Z" fill="white" fill-opacity="0.5"/>
</svg>
