<svg width="22" height="22" viewBox="0 0 22 22" fill="none" xmlns="http://www.w3.org/2000/svg">
<path d="M2.47312 2.44444H9.89249C10.5726 2.44444 11.1291 1.89444 11.1291 1.22222C11.1291 0.55 10.5726 0 9.89249 0H2.47312C1.11291 0 0 1.1 0 2.44444V19.5556C0 20.9 1.11291 22 2.47312 22H9.89249C10.5726 22 11.1291 21.45 11.1291 20.7778C11.1291 20.1056 10.5726 19.5556 9.89249 19.5556H2.47312V2.44444Z" fill="white" fill-opacity="0.5"/>
<path d="M21.8254 10.5723L18.3754 7.16226C17.9797 6.77115 17.3119 7.04004 17.3119 7.59004V9.77782H8.65599C7.97589 9.77782 7.41943 10.3278 7.41943 11C7.41943 11.6723 7.97589 12.2223 8.65599 12.2223H17.3119V14.41C17.3119 14.96 17.9797 15.2289 18.363 14.8378L21.813 11.4278C22.0603 11.1956 22.0603 10.8045 21.8254 10.5723Z" fill="white" fill-opacity="0.5"/>
</svg>
