<svg width="30" height="30" viewBox="0 0 30 30" fill="none" xmlns="http://www.w3.org/2000/svg">
<path d="M3.75 12.5V17.5C3.75 18.1875 4.3125 18.75 5 18.75H8.75L12.8625 22.8625C13.65 23.65 15 23.0875 15 21.975V8.01248C15 6.89998 13.65 6.33748 12.8625 7.12498L8.75 11.25H5C4.3125 11.25 3.75 11.8125 3.75 12.5ZM20.625 15C20.625 12.7875 19.35 10.8875 17.5 9.96248V20.025C19.35 19.1125 20.625 17.2125 20.625 15ZM17.5 5.56248V5.81248C17.5 6.28748 17.8125 6.69998 18.25 6.87498C21.475 8.16248 23.75 11.325 23.75 15C23.75 18.675 21.475 21.8375 18.25 23.125C17.8 23.3 17.5 23.7125 17.5 24.1875V24.4375C17.5 25.225 18.2875 25.775 19.0125 25.5C23.25 23.8875 26.25 19.8 26.25 15C26.25 10.2 23.25 6.11248 19.0125 4.49998C18.2875 4.21248 17.5 4.77498 17.5 5.56248Z" fill="white" fill-opacity="0.5"/>
</svg>
