<svg width="22" height="22" viewBox="0 0 22 22" fill="none" xmlns="http://www.w3.org/2000/svg">
<g opacity="0.5" clip-path="url(#clip0)">
<path d="M19.2418 0H16.0643C15.8499 0 15.6761 0.173822 15.6761 0.388213V2.32928H13.0848V0.388213C13.0848 0.173822 12.911 0 12.6966 0H9.30165C9.08726 0 8.91344 0.173822 8.91344 0.388213V2.32928H6.32406V0.388213C6.32406 0.173822 6.15024 0 5.93585 0H2.75833C2.54394 0 2.37012 0.173822 2.37012 0.388213V4.55567C2.37225 5.60642 3.22355 6.45772 4.2743 6.45986H4.28206H17.7259C18.7766 6.45772 19.6279 5.60642 19.63 4.55567V0.388213C19.63 0.173822 19.4562 0 19.2418 0Z" fill="white"/>
<path d="M17.4092 7.04016H4.5982L4.04888 19.5037V19.6241C4.04514 20.2165 4.24527 20.7922 4.61567 21.2546C4.9557 21.6919 5.46634 21.9631 6.01906 21.9999H15.9903C16.543 21.9631 17.0537 21.6919 17.3937 21.2546C17.7641 20.7922 17.9642 20.2165 17.9605 19.6241C17.9605 19.6008 17.9605 19.56 17.9605 19.5037L17.4092 7.04016ZM13.9483 21.2429H8.05523V15.7769C8.05523 14.1479 9.37574 12.8274 11.0047 12.8274C12.6336 12.8274 13.9541 14.1479 13.9541 15.7769L13.9483 21.2429Z" fill="white"/>
</g>
<defs>
<clipPath id="clip0">
<rect width="22" height="22" fill="white"/>
</clipPath>
</defs>
</svg>
