<svg width="14" height="13" viewBox="0 0 14 13" fill="none" xmlns="http://www.w3.org/2000/svg">
<path d="M8.23686 0.950664C9.30148 0.950664 10.2214 1.14678 10.9965 1.53901C11.7716 1.93124 12.36 2.48223 12.7615 3.19199C13.1724 3.8924 13.3779 4.70955 13.3779 5.64343C13.3779 6.39054 13.2471 7.10496 12.9857 7.7867C12.7335 8.46843 12.3646 9.02409 11.879 9.45368C11.4027 9.88326 10.8377 10.0981 10.184 10.0981C9.70772 10.0981 9.33417 9.99533 9.06334 9.78988C8.79252 9.57508 8.62442 9.27624 8.55905 8.89335C8.26954 9.2669 7.90533 9.56107 7.4664 9.77587C7.02748 9.99066 6.56987 10.0981 6.09359 10.0981C5.3745 10.0981 4.8095 9.88326 4.39859 9.45368C3.99702 9.01475 3.79624 8.42174 3.79624 7.67463C3.79624 6.96488 3.94099 6.30182 4.23049 5.68546C4.52934 5.06909 4.94492 4.5788 5.47723 4.21459C6.00954 3.84104 6.60723 3.65426 7.27029 3.65426C8.08277 3.65426 8.65243 3.92975 8.97929 4.48075L9.10537 3.78033H10.4922L9.79177 7.7867C9.76376 7.98281 9.74975 8.15558 9.74975 8.305C9.74975 8.54781 9.79644 8.72992 9.88983 8.85132C9.99256 8.97273 10.17 9.03343 10.4221 9.03343C10.777 9.03343 11.0805 8.86066 11.3327 8.51512C11.5848 8.16025 11.7716 7.72599 11.893 7.21236C12.0238 6.69872 12.0891 6.19909 12.0891 5.71347C12.0891 4.52744 11.7436 3.62157 11.0525 2.99587C10.3614 2.37017 9.35752 2.05732 8.04074 2.05732C6.93876 2.05732 5.94884 2.3188 5.07099 2.84178C4.20248 3.36475 3.52074 4.08385 3.02578 4.99905C2.53083 5.91426 2.28335 6.93219 2.28335 8.05285C2.28335 9.24822 2.63822 10.1588 3.34797 10.7845C4.05773 11.4102 5.07099 11.723 6.38777 11.723C7.27496 11.723 8.05008 11.5596 8.71314 11.2327L8.92326 12.2974C8.07343 12.6616 7.12087 12.8437 6.06558 12.8437C5.04764 12.8437 4.15578 12.6522 3.39 12.2693C2.62421 11.8864 2.0312 11.3401 1.61095 10.6304C1.1907 9.92996 0.980578 9.11281 0.980578 8.17893C0.980578 6.84347 1.28876 5.62475 1.90512 4.52277C2.53083 3.42079 3.39467 2.55228 4.49665 1.91723C5.59863 1.27285 6.84537 0.950664 8.23686 0.950664ZM6.58388 8.86533C6.97611 8.86533 7.33099 8.75326 7.64851 8.52913C7.97537 8.29566 8.23219 7.99215 8.41896 7.6186C8.60574 7.2357 8.69913 6.82946 8.69913 6.39988C8.69913 5.95161 8.57306 5.5874 8.32091 5.30723C8.0781 5.01773 7.73256 4.87298 7.2843 4.87298C6.88272 4.87298 6.52785 4.99905 6.21967 5.2512C5.92082 5.49401 5.68735 5.81153 5.51925 6.20376C5.36049 6.59599 5.28111 7.0069 5.28111 7.43649C5.28111 7.87541 5.38851 8.22562 5.6033 8.48711C5.8181 8.73926 6.14496 8.86533 6.58388 8.86533Z" fill="white"/>
</svg>
