<svg width="37" height="37" viewBox="0 0 37 37" fill="none" xmlns="http://www.w3.org/2000/svg">
<path d="M6.1665 16.1875C4.88692 16.1875 3.854 17.2204 3.854 18.5C3.854 19.7796 4.88692 20.8125 6.1665 20.8125C7.44609 20.8125 8.479 19.7796 8.479 18.5C8.479 17.2204 7.44609 16.1875 6.1665 16.1875ZM6.1665 6.9375C4.88692 6.9375 3.854 7.97042 3.854 9.25C3.854 10.5296 4.88692 11.5625 6.1665 11.5625C7.44609 11.5625 8.479 10.5296 8.479 9.25C8.479 7.97042 7.44609 6.9375 6.1665 6.9375ZM6.1665 25.4375C4.88692 25.4375 3.854 26.4858 3.854 27.75C3.854 29.0142 4.90234 30.0625 6.1665 30.0625C7.43067 30.0625 8.479 29.0142 8.479 27.75C8.479 26.4858 7.44609 25.4375 6.1665 25.4375ZM12.3332 29.2917H30.8332C31.6811 29.2917 32.3748 28.5979 32.3748 27.75C32.3748 26.9021 31.6811 26.2083 30.8332 26.2083H12.3332C11.4853 26.2083 10.7915 26.9021 10.7915 27.75C10.7915 28.5979 11.4853 29.2917 12.3332 29.2917ZM12.3332 20.0417H30.8332C31.6811 20.0417 32.3748 19.3479 32.3748 18.5C32.3748 17.6521 31.6811 16.9583 30.8332 16.9583H12.3332C11.4853 16.9583 10.7915 17.6521 10.7915 18.5C10.7915 19.3479 11.4853 20.0417 12.3332 20.0417ZM10.7915 9.25C10.7915 10.0979 11.4853 10.7917 12.3332 10.7917H30.8332C31.6811 10.7917 32.3748 10.0979 32.3748 9.25C32.3748 8.40208 31.6811 7.70833 30.8332 7.70833H12.3332C11.4853 7.70833 10.7915 8.40208 10.7915 9.25Z" fill="white" fill-opacity="0.75"/>
</svg>
