<svg width="34" height="34" viewBox="0 0 34 34" fill="none" xmlns="http://www.w3.org/2000/svg">
<path d="M28.3335 2.83334H5.66683C4.1085 2.83334 2.84766 4.10834 2.84766 5.66668L2.8335 31.1667L8.50016 25.5H28.3335C29.8918 25.5 31.1668 24.225 31.1668 22.6667V5.66668C31.1668 4.10834 29.8918 2.83334 28.3335 2.83334ZM9.91683 12.75H24.0835C24.8627 12.75 25.5002 13.3875 25.5002 14.1667C25.5002 14.9458 24.8627 15.5833 24.0835 15.5833H9.91683C9.13766 15.5833 8.50016 14.9458 8.50016 14.1667C8.50016 13.3875 9.13766 12.75 9.91683 12.75ZM18.4168 19.8333H9.91683C9.13766 19.8333 8.50016 19.1958 8.50016 18.4167C8.50016 17.6375 9.13766 17 9.91683 17H18.4168C19.196 17 19.8335 17.6375 19.8335 18.4167C19.8335 19.1958 19.196 19.8333 18.4168 19.8333ZM24.0835 11.3333H9.91683C9.13766 11.3333 8.50016 10.6958 8.50016 9.91668C8.50016 9.13751 9.13766 8.50001 9.91683 8.50001H24.0835C24.8627 8.50001 25.5002 9.13751 25.5002 9.91668C25.5002 10.6958 24.8627 11.3333 24.0835 11.3333Z" fill="white" fill-opacity="0.75"/>
</svg>
